<svg version="1.1" id="_x32_" xmlns="http://www.w3.org/2000/svg" x="0" y="0" viewBox="0 0 512 512" style="width:256px;height:256px" xml:space="preserve" opacity="1"><style>.st0{fill:#4b4b4b}</style><path class="st0" d="M266.822 237.206c-6.204 0-11.24 5.036-11.24 11.24 0 6.21 5.036 11.24 11.24 11.24 6.211 0 11.244-5.03 11.244-11.24 0-6.204-5.033-11.24-11.244-11.24zm65.57 11.24c-6.207 0-11.24 5.036-11.24 11.24 0 6.21 5.033 11.24 11.24 11.24s11.24-5.03 11.24-11.24c0-6.204-5.033-11.24-11.24-11.24zm65.567 11.24c-6.207 0-11.24 5.028-11.24 11.24 0 6.21 5.033 11.24 11.24 11.24 6.211 0 11.24-5.03 11.24-11.24-.001-6.212-5.029-11.24-11.24-11.24zm-105.486-74.903c.259-5.786-4.238-10.699-10.035-10.954-5.802-.256-10.707 4.241-10.962 10.034-.256 5.802 4.237 10.707 10.038 10.962 5.794.256 10.703-4.241 10.959-10.042zm60.785 13.202c.255-5.794-4.242-10.707-10.039-10.962-5.798-.255-10.703 4.242-10.962 10.035-.255 5.794 4.241 10.707 10.038 10.961 5.798.255 10.707-4.24 10.963-10.034zm60.784 13.187c.252-5.794-4.241-10.7-10.042-10.954-5.794-.255-10.703 4.241-10.958 10.034-.26 5.794 4.241 10.708 10.034 10.954 5.798.263 10.704-4.232 10.966-10.034z" fill="#4b4b4b"/><path class="st0" d="M461.517 313.9v-70.654l-18.738-4.28v-54.469l-26.933-6.15v-55.404l-76.552-18.926c-16.717-4.125-33.828 5.183-39.444 21.46l-8.436 24.457-62.968-14.384-35.35 21.066 8.312 13.944 29.761-17.737 195.375 44.62v37.814l-279.053-63.732L121.471 196a241049.49 241049.49 0 01-106.703-29.703C2.867 163.13-.674 174.439.102 180.635 19.175 332.85 114.313 408.957 114.313 408.957h369.058C509.501 387.156 512 322.212 512 322.212s-20.336-3.314-50.483-8.312zm-367.93-32.817c-7.64 0-13.836-6.188-13.836-13.827 0-7.64 6.196-13.836 13.836-13.836s13.831 6.196 13.831 13.836c0 7.64-6.191 13.827-13.831 13.827zm86.297-68.829s-17.034-4.736-40.124-11.163l12.557-11.811 292.962 66.907v55.018c-82.879-13.782-216.221-36.37-239.169-42.75-33.724-9.372-26.226-56.201-26.226-56.201z" fill="#4b4b4b"/></svg>